<svg width="138.4" height="70.8" viewBox="0 0 138.4 70.8" xmlns="http://www.w3.org/2000/svg"><g transform="translate(0,0) scale(1.3333333333333333)"><path d="M8 40 L8 16 Q8 8 16 8 L32 8 Q40 8 40 16 L40 40" stroke="#0A0604" stroke-width="2" stroke-linecap="round" fill="none"></path><line x1="5" y1="40" x2="43" y2="40" stroke="#0A0604" stroke-width="2" stroke-linecap="round"></line><path d="M18 40 L18 17 Q18 14 21 14 L32 14 Q35 14 35 17 L35 40" stroke="#7A3D2E" stroke-width="1.6" stroke-linecap="round" fill="none"></path><path d="M18 14 L14 11" stroke="#7A3D2E" stroke-width="1.4" stroke-linecap="round" opacity="0.6"></path><path d="M18 40 L14 40" stroke="#7A3D2E" stroke-width="1.4" stroke-linecap="round" opacity="0.6"></path><path d="M14 11 L14 40" stroke="#7A3D2E" stroke-width="1.4" stroke-linecap="round" opacity="0.6"></path><circle cx="30.5" cy="27" r="1.5" fill="#7A3D2E"></circle><line x1="22" y1="22" x2="28" y2="22" stroke="#7A3D2E" stroke-width="1" stroke-linecap="round" opacity="0.5"></line><line x1="22" y1="26" x2="29" y2="26" stroke="#7A3D2E" stroke-width="1" stroke-linecap="round" opacity="0.35"></line><line x1="22" y1="30" x2="27" y2="30" stroke="#7A3D2E" stroke-width="1" stroke-linecap="round" opacity="0.2"></line></g><g transform="translate(64,13.2)"><g><path d="M21.067 27.413L19.787 27.413Q19.733 27.013 19.707 26.333Q19.680 25.653 19.640 24.880Q19.600 24.107 19.587 23.400Q19.573 22.693 19.573 22.240L19.573 22.240L19.573 4.053Q19.253 3.627 18.653 3.240Q18.053 2.853 17.333 2.613L17.333 2.613L17.573 1.893Q17.627 1.813 17.680 1.787Q17.733 1.760 17.893 1.760L17.893 1.760Q18.427 1.760 19.133 1.880Q19.840 2.000 20.507 2.160Q21.173 2.320 21.573 2.480L21.573 2.480Q21.920 2.613 21.920 3.067L21.920 3.067L21.813 4.533L21.813 21.493Q21.813 22.080 21.760 22.853Q21.707 23.627 21.613 24.453Q21.520 25.280 21.387 26.053Q21.253 26.827 21.067 27.413L21.067 27.413M4.293 16.933L6.053 18.587Q5.840 18.587 5.413 18.680Q4.987 18.773 4.560 18.867Q4.133 18.960 3.920 19.067L3.920 19.067Q3.147 18.747 2.373 18.293Q1.600 17.840 1.013 17.360L1.013 17.360Q0.853 17.227 0.933 17.067L0.933 17.067L1.093 16.693Q1.840 16.800 2.707 16.867Q3.573 16.933 4.293 16.933L4.293 16.933M20.000 15.733L20.107 16.480Q20.133 16.693 19.867 16.747L19.867 16.747Q18.907 16.960 17.560 17.200Q16.213 17.440 14.680 17.653Q13.147 17.867 11.587 18.053Q10.027 18.240 8.600 18.387Q7.173 18.533 6.053 18.587L6.053 18.587L4.293 16.933Q5.493 16.907 7.067 16.827Q8.640 16.747 10.373 16.613Q12.107 16.480 13.827 16.320Q15.547 16.160 17.067 15.973Q18.587 15.787 19.680 15.573L19.680 15.573Q19.947 15.520 20.000 15.733L20.000 15.733M10.533 26.587L9.253 26.587Q9.200 26.187 9.160 25.600Q9.120 25.013 9.093 24.333Q9.067 23.653 9.053 23.040Q9.040 22.427 9.040 22.000L9.040 22.000L9.040 17.333L11.280 17.333L11.280 21.333Q11.280 21.867 11.213 22.560Q11.147 23.253 11.053 24.000Q10.960 24.747 10.827 25.427Q10.693 26.107 10.533 26.587L10.533 26.587M15.867 9.413L15.867 9.413Q15.867 10.827 15.093 11.920Q14.320 13.013 13.000 13.653Q11.680 14.293 9.973 14.293L9.973 14.293Q8.293 14.293 6.960 13.653Q5.627 13.013 4.853 11.920Q4.080 10.827 4.080 9.413L4.080 9.413Q4.080 8.000 4.853 6.920Q5.627 5.840 6.960 5.227Q8.293 4.613 9.973 4.613L9.973 4.613Q11.680 4.613 13.000 5.227Q14.320 5.840 15.093 6.920Q15.867 8.000 15.867 9.413M13.547 9.413L13.547 9.413Q13.547 7.920 12.520 7.040Q11.493 6.160 9.973 6.160L9.973 6.160Q8.427 6.160 7.400 7.040Q6.373 7.920 6.373 9.413L6.373 9.413Q6.373 10.907 7.400 11.787Q8.427 12.667 9.973 12.667L9.973 12.667Q11.493 12.667 12.520 11.787Q13.547 10.907 13.547 9.413" fill="#7A3D2E"/><path d="M29.120 4.533L29.333 4.240Q31.173 4.560 32.987 4.667Q34.800 4.773 36.187 4.747L36.187 4.747Q36.587 4.747 36.667 4.987L36.667 4.987Q36.747 5.147 36.747 5.400Q36.747 5.653 36.707 5.880Q36.667 6.107 36.560 6.240L36.560 6.240Q36.427 6.400 36.133 6.400L36.133 6.400Q35.467 6.400 34.587 6.427Q33.707 6.453 32.880 6.480Q32.053 6.507 31.440 6.560L31.440 6.560Q31.067 6.587 30.853 6.453L30.853 6.453Q30.427 6.187 29.960 5.733Q29.493 5.280 29.147 4.800L29.147 4.800Q29.067 4.640 29.120 4.533L29.120 4.533M37.600 8.533L38.453 8.160Q39.040 8.160 39.760 8.253Q40.480 8.347 40.853 8.480L40.853 8.480Q41.147 8.587 41.147 8.880L41.147 8.880Q41.147 9.280 40.960 9.587Q40.773 9.893 40.587 10.027L40.587 10.027Q40.347 9.973 39.893 9.960Q39.440 9.947 38.973 9.933Q38.507 9.920 38.187 9.920L38.187 9.920Q37.893 9.920 37.013 9.933Q36.133 9.947 34.987 9.960Q33.840 9.973 32.720 10.000Q31.600 10.027 30.733 10.053Q29.867 10.080 29.573 10.107L29.573 10.107Q29.173 10.133 28.560 10.253Q27.947 10.373 27.573 10.507L27.573 10.507Q27.013 10.267 26.413 9.880Q25.813 9.493 25.413 9.120L25.413 9.120Q25.253 8.987 25.333 8.853L25.333 8.853L25.520 8.507Q26.107 8.613 26.827 8.667Q27.547 8.720 28.027 8.720L28.027 8.720Q28.347 8.720 29.307 8.720Q30.267 8.720 31.520 8.707Q32.773 8.693 34.027 8.653Q35.280 8.613 36.267 8.587Q37.253 8.560 37.600 8.533L37.600 8.533M49.520 15.093L49.520 15.093L44.560 15.173L44.560 13.813L46.773 13.733L47.627 13.200Q48.240 13.173 48.947 13.213Q49.653 13.253 50.000 13.333L50.000 13.333Q50.427 13.440 50.453 13.813L50.453 13.813Q50.453 14.213 50.360 14.507Q50.267 14.800 50.133 14.907L50.133 14.907Q50.027 14.987 49.853 15.040Q49.680 15.093 49.520 15.093M44.267 27.413L42.987 27.413Q42.960 27.013 42.920 26.333Q42.880 25.653 42.840 24.880Q42.800 24.107 42.800 23.400Q42.800 22.693 42.800 22.240L42.800 22.240L42.800 4.053Q42.453 3.627 41.853 3.240Q41.253 2.853 40.533 2.613L40.533 2.613L40.773 1.893Q40.827 1.813 40.880 1.787Q40.933 1.760 41.120 1.760L41.120 1.760Q41.627 1.760 42.333 1.880Q43.040 2.000 43.707 2.160Q44.373 2.320 44.773 2.480L44.773 2.480Q45.120 2.613 45.120 3.067L45.120 3.067L45.040 4.533L45.040 21.493Q45.040 22.080 44.973 22.853Q44.907 23.627 44.827 24.453Q44.747 25.280 44.600 26.053Q44.453 26.827 44.267 27.413L44.267 27.413M38.960 16.373L38.960 16.373Q38.960 17.787 38.200 18.853Q37.440 19.920 36.187 20.493Q34.933 21.067 33.440 21.067L33.440 21.067Q31.947 21.067 30.693 20.493Q29.440 19.920 28.667 18.853Q27.893 17.787 27.893 16.373L27.893 16.373Q27.893 14.960 28.667 13.907Q29.440 12.853 30.693 12.267Q31.947 11.680 33.440 11.680L33.440 11.680Q34.933 11.680 36.187 12.267Q37.440 12.853 38.200 13.907Q38.960 14.960 38.960 16.373M36.773 16.373L36.773 16.373Q36.773 15.387 36.307 14.667Q35.840 13.947 35.093 13.573Q34.347 13.200 33.440 13.200L33.440 13.200Q32.560 13.200 31.800 13.573Q31.040 13.947 30.587 14.667Q30.133 15.387 30.133 16.373L30.133 16.373Q30.133 17.387 30.587 18.093Q31.040 18.800 31.800 19.187Q32.560 19.573 33.440 19.573L33.440 19.573Q34.347 19.573 35.093 19.187Q35.840 18.800 36.307 18.093Q36.773 17.387 36.773 16.373" fill="#0A0604"/><path d="M68.000 16.373L68.000 17.627Q66.160 18.267 63.987 18.773Q61.813 19.280 59.693 19.640Q57.573 20.000 55.867 20.133L55.867 20.133Q55.627 20.160 55.387 20.160Q55.147 20.160 54.933 20.160L54.933 20.160Q54.187 20.160 53.680 19.760Q53.173 19.360 52.960 18.693L52.960 18.693Q52.880 18.507 52.853 18.160Q52.827 17.813 52.827 17.413L52.827 17.413L52.827 11.760L55.120 11.760L55.120 17.733Q55.120 18.240 55.600 18.213L55.600 18.213Q56.853 18.187 58.453 18.040Q60.053 17.893 61.747 17.653Q63.440 17.413 65.067 17.093Q66.693 16.773 68.000 16.373L68.000 16.373M55.120 8.213L55.120 12.400L52.827 12.400L52.827 8.267Q52.160 7.653 51.067 7.413L51.067 7.413L51.227 6.747Q51.280 6.587 51.493 6.587L51.493 6.587Q51.947 6.587 52.653 6.613Q53.360 6.640 54.067 6.707Q54.773 6.773 55.173 6.853L55.173 6.853L55.120 8.213M63.227 7.947L63.227 7.947L54.987 8.213L54.987 6.853Q55.387 6.853 56.147 6.827Q56.907 6.800 57.787 6.773Q58.667 6.747 59.400 6.707Q60.133 6.667 60.453 6.640L60.453 6.640L61.227 6.187Q61.733 6.187 62.440 6.227Q63.147 6.267 63.547 6.347L63.547 6.347Q63.893 6.427 63.893 6.747L63.893 6.747Q63.893 7.120 63.813 7.400Q63.733 7.680 63.627 7.787L63.627 7.787Q63.493 7.947 63.227 7.947M74.320 14.267L74.320 14.267L69.360 14.347L69.360 13.013L71.573 12.907L72.427 12.373Q73.040 12.347 73.747 12.387Q74.453 12.427 74.800 12.507L74.800 12.507Q75.227 12.613 75.253 13.013L75.253 13.013Q75.253 13.387 75.160 13.680Q75.067 13.973 74.933 14.080L74.933 14.080Q74.827 14.160 74.653 14.213Q74.480 14.267 74.320 14.267M69.067 27.413L67.787 27.413Q67.760 27.013 67.720 26.333Q67.680 25.653 67.640 24.880Q67.600 24.107 67.600 23.400Q67.600 22.693 67.600 22.240L67.600 22.240L67.600 4.053Q67.253 3.627 66.653 3.240Q66.053 2.853 65.333 2.613L65.333 2.613L65.573 1.893Q65.627 1.813 65.680 1.787Q65.733 1.760 65.920 1.760L65.920 1.760Q66.427 1.760 67.133 1.880Q67.840 2.000 68.507 2.160Q69.173 2.320 69.573 2.480L69.573 2.480Q69.920 2.613 69.920 3.067L69.920 3.067L69.840 4.533L69.840 21.493Q69.840 22.080 69.773 22.853Q69.707 23.627 69.627 24.453Q69.547 25.280 69.400 26.053Q69.253 26.827 69.067 27.413L69.067 27.413" fill="#0A0604"/><path d="M2.007 31.067L1.213 31.067L1.213 37.600L2.007 37.600L2.007 31.067M1.652 31.067L1.652 31.813L2.987 31.813Q3.621 31.813 4.018 32.117Q4.415 32.420 4.415 33.027L4.415 33.027Q4.415 33.624 4.018 33.932Q3.621 34.240 2.987 34.240L2.987 34.240L1.652 34.240L1.652 34.987L2.987 34.987Q3.621 34.987 4.121 34.749Q4.620 34.511 4.914 34.067Q5.208 33.624 5.208 33.027L5.208 33.027Q5.208 32.420 4.914 31.981Q4.620 31.543 4.121 31.305Q3.621 31.067 2.987 31.067L2.987 31.067L1.652 31.067" fill="#7A5A4A"/><path d="M6.347 31.067L5.554 31.067L5.554 35.453Q5.554 35.939 5.708 36.349Q5.862 36.760 6.156 37.059Q6.450 37.357 6.861 37.525Q7.271 37.693 7.775 37.693L7.775 37.693Q8.279 37.693 8.690 37.525Q9.101 37.357 9.395 37.059Q9.689 36.760 9.843 36.349Q9.997 35.939 9.997 35.453L9.997 35.453L9.997 31.067L9.203 31.067L9.203 35.453Q9.203 36.125 8.839 36.536Q8.475 36.947 7.775 36.947L7.775 36.947Q7.075 36.947 6.711 36.536Q6.347 36.125 6.347 35.453L6.347 35.453L6.347 31.067" fill="#7A5A4A"/><path d="M11.238 33.708L11.238 34.147L12.293 34.147Q12.881 34.147 13.315 33.979Q13.749 33.811 13.991 33.484Q14.234 33.157 14.234 32.700L14.234 32.700Q14.234 32.140 13.991 31.781Q13.749 31.421 13.315 31.244Q12.881 31.067 12.293 31.067L12.293 31.067L10.613 31.067L10.613 37.600L12.386 37.600Q13.021 37.600 13.520 37.390Q14.019 37.180 14.313 36.755Q14.607 36.331 14.607 35.687L14.607 35.687Q14.607 35.239 14.439 34.912Q14.271 34.585 13.968 34.375Q13.665 34.165 13.263 34.063Q12.862 33.960 12.386 33.960L12.386 33.960L11.238 33.960L11.238 34.399L12.386 34.399Q12.703 34.399 12.965 34.478Q13.226 34.557 13.417 34.716Q13.609 34.875 13.711 35.108Q13.814 35.341 13.814 35.640L13.814 35.640Q13.814 36.041 13.632 36.321Q13.450 36.601 13.128 36.751Q12.806 36.900 12.386 36.900L12.386 36.900L11.406 36.900L11.406 31.767L12.293 31.767Q12.787 31.767 13.114 32.023Q13.441 32.280 13.441 32.747L13.441 32.747Q13.441 33.055 13.291 33.269Q13.142 33.484 12.881 33.596Q12.619 33.708 12.293 33.708L12.293 33.708L11.238 33.708" fill="#7A5A4A"/><path d="M15.873 31.067L15.080 31.067L15.080 37.600L18.440 37.600L18.440 36.853L15.873 36.853L15.873 31.067" fill="#7A5A4A"/><path d="M19.476 31.067L18.683 31.067L18.683 37.600L19.476 37.600L19.476 31.067" fill="#7A5A4A"/><path d="M20.887 35.621L20.887 35.621L20.252 36.051Q20.467 36.480 20.808 36.858Q21.148 37.236 21.601 37.465Q22.054 37.693 22.586 37.693L22.586 37.693Q22.978 37.693 23.337 37.563Q23.696 37.432 23.981 37.189Q24.266 36.947 24.429 36.601Q24.592 36.256 24.592 35.827L24.592 35.827Q24.592 35.379 24.434 35.057Q24.275 34.735 24.028 34.506Q23.780 34.277 23.491 34.128Q23.202 33.979 22.940 33.885L22.940 33.885Q22.371 33.689 22.040 33.489Q21.708 33.288 21.568 33.059Q21.428 32.831 21.428 32.560L21.428 32.560Q21.428 32.243 21.671 31.986Q21.914 31.729 22.446 31.729L22.446 31.729Q22.828 31.729 23.094 31.879Q23.360 32.028 23.547 32.261Q23.734 32.495 23.855 32.737L23.855 32.737L24.536 32.345Q24.378 32.000 24.098 31.687Q23.818 31.375 23.421 31.174Q23.024 30.973 22.492 30.973L22.492 30.973Q21.942 30.973 21.512 31.193Q21.083 31.412 20.840 31.795Q20.598 32.177 20.598 32.663L20.598 32.663Q20.598 33.111 20.770 33.419Q20.943 33.727 21.214 33.937Q21.484 34.147 21.783 34.282Q22.082 34.417 22.324 34.501L22.324 34.501Q22.698 34.632 23.029 34.795Q23.360 34.959 23.566 35.220Q23.771 35.481 23.771 35.920L23.771 35.920Q23.771 36.368 23.454 36.657Q23.136 36.947 22.614 36.947L22.614 36.947Q22.222 36.947 21.914 36.779Q21.606 36.611 21.358 36.312Q21.111 36.013 20.887 35.621" fill="#7A5A4A"/><path d="M25.470 33.680L25.470 34.427L29.950 34.427L29.950 33.680L25.470 33.680M30.212 31.067L29.418 31.067L29.418 37.600L30.212 37.600L30.212 31.067M25.825 31.067L25.032 31.067L25.032 37.600L25.825 37.600L25.825 31.067" fill="#7A5A4A"/><path d="M31.550 31.067L30.756 31.067L30.756 37.600L31.550 37.600L31.550 31.067" fill="#7A5A4A"/><path d="M38.458 31.067L37.664 31.067L37.664 35.929L32.718 30.740L32.718 37.600L33.511 37.600L33.511 32.737L38.458 37.927L38.458 31.067" fill="#7A5A4A"/><path d="M41.956 34.287L41.956 35.033L44.131 35.033Q44.047 35.416 43.865 35.752Q43.683 36.088 43.403 36.349Q43.123 36.611 42.735 36.755Q42.348 36.900 41.863 36.900L41.863 36.900Q41.172 36.900 40.612 36.573Q40.052 36.247 39.721 35.668Q39.389 35.089 39.389 34.333L39.389 34.333Q39.389 33.568 39.721 32.994Q40.052 32.420 40.612 32.093Q41.172 31.767 41.863 31.767L41.863 31.767Q42.609 31.767 43.160 32.061Q43.711 32.355 44.019 32.877L44.019 32.877L44.579 32.364Q44.299 31.907 43.893 31.599Q43.487 31.291 42.978 31.132Q42.469 30.973 41.863 30.973L41.863 30.973Q41.153 30.973 40.547 31.221Q39.940 31.468 39.492 31.921Q39.044 32.373 38.797 32.989Q38.549 33.605 38.549 34.333L38.549 34.333Q38.549 35.061 38.797 35.677Q39.044 36.293 39.492 36.746Q39.940 37.199 40.547 37.446Q41.153 37.693 41.863 37.693L41.863 37.693Q42.609 37.693 43.193 37.418Q43.776 37.143 44.177 36.667Q44.579 36.191 44.784 35.579Q44.989 34.968 44.989 34.287L44.989 34.287L41.956 34.287" fill="#7A5A4A"/><path d="M47.968 33.680L47.968 34.427L52.448 34.427L52.448 33.680L47.968 33.680M52.709 31.067L51.916 31.067L51.916 37.600L52.709 37.600L52.709 31.067M48.323 31.067L47.529 31.067L47.529 37.600L48.323 37.600L48.323 31.067" fill="#7A5A4A"/><path d="M53.720 34.333L53.720 34.333Q53.720 33.596 54.042 33.017Q54.364 32.439 54.924 32.103Q55.484 31.767 56.194 31.767L56.194 31.767Q56.912 31.767 57.468 32.103Q58.023 32.439 58.345 33.017Q58.667 33.596 58.667 34.333L58.667 34.333Q58.667 35.071 58.345 35.649Q58.023 36.228 57.468 36.564Q56.912 36.900 56.194 36.900L56.194 36.900Q55.484 36.900 54.924 36.564Q54.364 36.228 54.042 35.649Q53.720 35.071 53.720 34.333M52.880 34.333L52.880 34.333Q52.880 35.043 53.128 35.659Q53.375 36.275 53.823 36.727Q54.271 37.180 54.878 37.437Q55.484 37.693 56.194 37.693L56.194 37.693Q56.912 37.693 57.514 37.437Q58.116 37.180 58.564 36.727Q59.012 36.275 59.260 35.659Q59.507 35.043 59.507 34.333L59.507 34.333Q59.507 33.615 59.260 33.003Q59.012 32.392 58.564 31.939Q58.116 31.487 57.514 31.230Q56.912 30.973 56.194 30.973L56.194 30.973Q55.484 30.973 54.878 31.230Q54.271 31.487 53.823 31.939Q53.375 32.392 53.128 33.003Q52.880 33.615 52.880 34.333" fill="#7A5A4A"/><path d="M60.325 31.067L59.532 31.067L59.532 35.453Q59.532 35.939 59.686 36.349Q59.840 36.760 60.134 37.059Q60.428 37.357 60.839 37.525Q61.249 37.693 61.753 37.693L61.753 37.693Q62.257 37.693 62.668 37.525Q63.079 37.357 63.373 37.059Q63.667 36.760 63.821 36.349Q63.975 35.939 63.975 35.453L63.975 35.453L63.975 31.067L63.181 31.067L63.181 35.453Q63.181 36.125 62.817 36.536Q62.453 36.947 61.753 36.947L61.753 36.947Q61.053 36.947 60.689 36.536Q60.325 36.125 60.325 35.453L60.325 35.453L60.325 31.067" fill="#7A5A4A"/><path d="M64.833 35.621L64.833 35.621L64.199 36.051Q64.413 36.480 64.754 36.858Q65.095 37.236 65.547 37.465Q66.000 37.693 66.532 37.693L66.532 37.693Q66.924 37.693 67.283 37.563Q67.643 37.432 67.927 37.189Q68.212 36.947 68.375 36.601Q68.539 36.256 68.539 35.827L68.539 35.827Q68.539 35.379 68.380 35.057Q68.221 34.735 67.974 34.506Q67.727 34.277 67.437 34.128Q67.148 33.979 66.887 33.885L66.887 33.885Q66.317 33.689 65.986 33.489Q65.655 33.288 65.515 33.059Q65.375 32.831 65.375 32.560L65.375 32.560Q65.375 32.243 65.617 31.986Q65.860 31.729 66.392 31.729L66.392 31.729Q66.775 31.729 67.041 31.879Q67.307 32.028 67.493 32.261Q67.680 32.495 67.801 32.737L67.801 32.737L68.483 32.345Q68.324 32.000 68.044 31.687Q67.764 31.375 67.367 31.174Q66.971 30.973 66.439 30.973L66.439 30.973Q65.888 30.973 65.459 31.193Q65.029 31.412 64.787 31.795Q64.544 32.177 64.544 32.663L64.544 32.663Q64.544 33.111 64.717 33.419Q64.889 33.727 65.160 33.937Q65.431 34.147 65.729 34.282Q66.028 34.417 66.271 34.501L66.271 34.501Q66.644 34.632 66.975 34.795Q67.307 34.959 67.512 35.220Q67.717 35.481 67.717 35.920L67.717 35.920Q67.717 36.368 67.400 36.657Q67.083 36.947 66.560 36.947L66.560 36.947Q66.168 36.947 65.860 36.779Q65.552 36.611 65.305 36.312Q65.057 36.013 64.833 35.621" fill="#7A5A4A"/><path d="M69.417 36.853L69.417 37.600L72.711 37.600L72.711 36.853L69.417 36.853M69.417 31.067L69.417 31.813L72.711 31.813L72.711 31.067L69.417 31.067M69.417 33.680L69.417 34.427L72.525 34.427L72.525 33.680L69.417 33.680M69.771 31.067L68.978 31.067L68.978 37.600L69.771 37.600L69.771 31.067" fill="#7A5A4A"/></g></g></svg>
