<svg width="136" height="136" viewBox="0 0 136 136" xmlns="http://www.w3.org/2000/svg"><rect width="136" height="136" fill="#1E1410"/><g transform="translate(20,20)"><path d="M8 40 L8 16 Q8 8 16 8 L32 8 Q40 8 40 16 L40 40" stroke="#F8F4F1" stroke-width="2" stroke-linecap="round" fill="none"></path><line x1="5" y1="40" x2="43" y2="40" stroke="#F8F4F1" stroke-width="2" stroke-linecap="round"></line><path d="M18 40 L18 17 Q18 14 21 14 L32 14 Q35 14 35 17 L35 40" stroke="#EDD9D5" stroke-width="1.6" stroke-linecap="round" fill="none"></path><path d="M18 14 L14 11" stroke="#EDD9D5" stroke-width="1.4" stroke-linecap="round" opacity="0.6"></path><path d="M18 40 L14 40" stroke="#EDD9D5" stroke-width="1.4" stroke-linecap="round" opacity="0.6"></path><path d="M14 11 L14 40" stroke="#EDD9D5" stroke-width="1.4" stroke-linecap="round" opacity="0.6"></path><circle cx="30.5" cy="27" r="1.5" fill="#EDD9D5"></circle><line x1="22" y1="22" x2="28" y2="22" stroke="#EDD9D5" stroke-width="1" stroke-linecap="round" opacity="0.5"></line><line x1="22" y1="26" x2="29" y2="26" stroke="#EDD9D5" stroke-width="1" stroke-linecap="round" opacity="0.35"></line><line x1="22" y1="30" x2="27" y2="30" stroke="#EDD9D5" stroke-width="1" stroke-linecap="round" opacity="0.2"></line></g></svg>
