<svg width="90.25" height="124.65" viewBox="0 0 90.25 124.65" xmlns="http://www.w3.org/2000/svg"><g transform="translate(5.125,0) scale(1.6666666666666667)"><path d="M8 40 L8 16 Q8 8 16 8 L32 8 Q40 8 40 16 L40 40" stroke="#0A0604" stroke-width="2" stroke-linecap="round" fill="none"></path><line x1="5" y1="40" x2="43" y2="40" stroke="#0A0604" stroke-width="2" stroke-linecap="round"></line><path d="M18 40 L18 17 Q18 14 21 14 L32 14 Q35 14 35 17 L35 40" stroke="#7A3D2E" stroke-width="1.6" stroke-linecap="round" fill="none"></path><path d="M18 14 L14 11" stroke="#7A3D2E" stroke-width="1.4" stroke-linecap="round" opacity="0.6"></path><path d="M18 40 L14 40" stroke="#7A3D2E" stroke-width="1.4" stroke-linecap="round" opacity="0.6"></path><path d="M14 11 L14 40" stroke="#7A3D2E" stroke-width="1.4" stroke-linecap="round" opacity="0.6"></path><circle cx="30.5" cy="27" r="1.5" fill="#7A3D2E"></circle><line x1="22" y1="22" x2="28" y2="22" stroke="#7A3D2E" stroke-width="1" stroke-linecap="round" opacity="0.5"></line><line x1="22" y1="26" x2="29" y2="26" stroke="#7A3D2E" stroke-width="1" stroke-linecap="round" opacity="0.35"></line><line x1="22" y1="30" x2="27" y2="30" stroke="#7A3D2E" stroke-width="1" stroke-linecap="round" opacity="0.2"></line></g><g transform="translate(0,80)"><g><path d="M25.017 32.553L23.497 32.553Q23.433 32.078 23.402 31.271Q23.370 30.463 23.323 29.545Q23.275 28.627 23.259 27.788Q23.243 26.948 23.243 26.410L23.243 26.410L23.243 4.813Q22.863 4.307 22.151 3.848Q21.438 3.388 20.583 3.103L20.583 3.103L20.868 2.248Q20.932 2.153 20.995 2.122Q21.058 2.090 21.248 2.090L21.248 2.090Q21.882 2.090 22.721 2.233Q23.560 2.375 24.352 2.565Q25.143 2.755 25.618 2.945L25.618 2.945Q26.030 3.103 26.030 3.642L26.030 3.642L25.903 5.383L25.903 25.523Q25.903 26.220 25.840 27.138Q25.777 28.057 25.666 29.038Q25.555 30.020 25.397 30.938Q25.238 31.857 25.017 32.553L25.017 32.553M5.098 20.108L7.188 22.072Q6.935 22.072 6.428 22.183Q5.922 22.293 5.415 22.404Q4.908 22.515 4.655 22.642L4.655 22.642Q3.737 22.262 2.818 21.723Q1.900 21.185 1.203 20.615L1.203 20.615Q1.013 20.457 1.108 20.267L1.108 20.267L1.298 19.823Q2.185 19.950 3.214 20.029Q4.243 20.108 5.098 20.108L5.098 20.108M23.750 18.683L23.877 19.570Q23.908 19.823 23.592 19.887L23.592 19.887Q22.452 20.140 20.853 20.425Q19.253 20.710 17.433 20.963Q15.612 21.217 13.759 21.438Q11.907 21.660 10.213 21.834Q8.518 22.008 7.188 22.072L7.188 22.072L5.098 20.108Q6.523 20.077 8.392 19.982Q10.260 19.887 12.318 19.728Q14.377 19.570 16.419 19.380Q18.462 19.190 20.267 18.968Q22.072 18.747 23.370 18.493L23.370 18.493Q23.687 18.430 23.750 18.683L23.750 18.683M12.508 31.572L10.988 31.572Q10.925 31.097 10.878 30.400Q10.830 29.703 10.798 28.896Q10.767 28.088 10.751 27.360Q10.735 26.632 10.735 26.125L10.735 26.125L10.735 20.583L13.395 20.583L13.395 25.333Q13.395 25.967 13.316 26.790Q13.237 27.613 13.126 28.500Q13.015 29.387 12.857 30.194Q12.698 31.002 12.508 31.572L12.508 31.572M18.842 11.178L18.842 11.178Q18.842 12.857 17.923 14.155Q17.005 15.453 15.438 16.213Q13.870 16.973 11.843 16.973L11.843 16.973Q9.848 16.973 8.265 16.213Q6.682 15.453 5.763 14.155Q4.845 12.857 4.845 11.178L4.845 11.178Q4.845 9.500 5.763 8.218Q6.682 6.935 8.265 6.207Q9.848 5.478 11.843 5.478L11.843 5.478Q13.870 5.478 15.438 6.207Q17.005 6.935 17.923 8.218Q18.842 9.500 18.842 11.178M16.087 11.178L16.087 11.178Q16.087 9.405 14.868 8.360Q13.648 7.315 11.843 7.315L11.843 7.315Q10.007 7.315 8.788 8.360Q7.568 9.405 7.568 11.178L7.568 11.178Q7.568 12.952 8.788 13.997Q10.007 15.042 11.843 15.042L11.843 15.042Q13.648 15.042 14.868 13.997Q16.087 12.952 16.087 11.178" fill="#7A3D2E"/><path d="M35.213 5.383L35.467 5.035Q37.652 5.415 39.805 5.542Q41.958 5.668 43.605 5.637L43.605 5.637Q44.080 5.637 44.175 5.922L44.175 5.922Q44.270 6.112 44.270 6.413Q44.270 6.713 44.222 6.983Q44.175 7.252 44.048 7.410L44.048 7.410Q43.890 7.600 43.542 7.600L43.542 7.600Q42.750 7.600 41.705 7.632Q40.660 7.663 39.678 7.695Q38.697 7.727 37.968 7.790L37.968 7.790Q37.525 7.822 37.272 7.663L37.272 7.663Q36.765 7.347 36.211 6.808Q35.657 6.270 35.245 5.700L35.245 5.700Q35.150 5.510 35.213 5.383L35.213 5.383M45.283 10.133L46.297 9.690Q46.993 9.690 47.848 9.801Q48.703 9.912 49.147 10.070L49.147 10.070Q49.495 10.197 49.495 10.545L49.495 10.545Q49.495 11.020 49.273 11.384Q49.052 11.748 48.830 11.907L48.830 11.907Q48.545 11.843 48.007 11.828Q47.468 11.812 46.914 11.796Q46.360 11.780 45.980 11.780L45.980 11.780Q45.632 11.780 44.587 11.796Q43.542 11.812 42.180 11.828Q40.818 11.843 39.488 11.875Q38.158 11.907 37.129 11.938Q36.100 11.970 35.752 12.002L35.752 12.002Q35.277 12.033 34.548 12.176Q33.820 12.318 33.377 12.477L33.377 12.477Q32.712 12.192 31.999 11.733Q31.287 11.273 30.812 10.830L30.812 10.830Q30.622 10.672 30.717 10.513L30.717 10.513L30.938 10.102Q31.635 10.228 32.490 10.292Q33.345 10.355 33.915 10.355L33.915 10.355Q34.295 10.355 35.435 10.355Q36.575 10.355 38.063 10.339Q39.552 10.323 41.040 10.276Q42.528 10.228 43.700 10.197Q44.872 10.165 45.283 10.133L45.283 10.133M59.438 17.923L59.438 17.923L53.548 18.018L53.548 16.403L56.177 16.308L57.190 15.675Q57.918 15.643 58.758 15.691Q59.597 15.738 60.008 15.833L60.008 15.833Q60.515 15.960 60.547 16.403L60.547 16.403Q60.547 16.878 60.436 17.227Q60.325 17.575 60.167 17.702L60.167 17.702Q60.040 17.797 59.834 17.860Q59.628 17.923 59.438 17.923M53.200 32.553L51.680 32.553Q51.648 32.078 51.601 31.271Q51.553 30.463 51.506 29.545Q51.458 28.627 51.458 27.788Q51.458 26.948 51.458 26.410L51.458 26.410L51.458 4.813Q51.047 4.307 50.334 3.848Q49.622 3.388 48.767 3.103L48.767 3.103L49.052 2.248Q49.115 2.153 49.178 2.122Q49.242 2.090 49.463 2.090L49.463 2.090Q50.065 2.090 50.904 2.233Q51.743 2.375 52.535 2.565Q53.327 2.755 53.802 2.945L53.802 2.945Q54.213 3.103 54.213 3.642L54.213 3.642L54.118 5.383L54.118 25.523Q54.118 26.220 54.039 27.138Q53.960 28.057 53.865 29.038Q53.770 30.020 53.596 30.938Q53.422 31.857 53.200 32.553L53.200 32.553M46.898 19.443L46.898 19.443Q46.898 21.122 45.996 22.388Q45.093 23.655 43.605 24.336Q42.117 25.017 40.343 25.017L40.343 25.017Q38.570 25.017 37.082 24.336Q35.593 23.655 34.675 22.388Q33.757 21.122 33.757 19.443L33.757 19.443Q33.757 17.765 34.675 16.514Q35.593 15.263 37.082 14.567Q38.570 13.870 40.343 13.870L40.343 13.870Q42.117 13.870 43.605 14.567Q45.093 15.263 45.996 16.514Q46.898 17.765 46.898 19.443M44.302 19.443L44.302 19.443Q44.302 18.272 43.748 17.417Q43.193 16.562 42.307 16.118Q41.420 15.675 40.343 15.675L40.343 15.675Q39.298 15.675 38.396 16.118Q37.493 16.562 36.955 17.417Q36.417 18.272 36.417 19.443L36.417 19.443Q36.417 20.647 36.955 21.486Q37.493 22.325 38.396 22.784Q39.298 23.243 40.343 23.243L40.343 23.243Q41.420 23.243 42.307 22.784Q43.193 22.325 43.748 21.486Q44.302 20.647 44.302 19.443" fill="#0A0604"/><path d="M82.017 19.443L82.017 20.932Q79.832 21.692 77.251 22.293Q74.670 22.895 72.153 23.323Q69.635 23.750 67.608 23.908L67.608 23.908Q67.323 23.940 67.038 23.940Q66.753 23.940 66.500 23.940L66.500 23.940Q65.613 23.940 65.012 23.465Q64.410 22.990 64.157 22.198L64.157 22.198Q64.062 21.977 64.030 21.565Q63.998 21.153 63.998 20.678L63.998 20.678L63.998 13.965L66.722 13.965L66.722 21.058Q66.722 21.660 67.292 21.628L67.292 21.628Q68.780 21.597 70.680 21.423Q72.580 21.248 74.591 20.963Q76.602 20.678 78.533 20.298Q80.465 19.918 82.017 19.443L82.017 19.443M66.722 9.753L66.722 14.725L63.998 14.725L63.998 9.817Q63.207 9.088 61.908 8.803L61.908 8.803L62.098 8.012Q62.162 7.822 62.415 7.822L62.415 7.822Q62.953 7.822 63.792 7.853Q64.632 7.885 65.471 7.964Q66.310 8.043 66.785 8.138L66.785 8.138L66.722 9.753M76.348 9.437L76.348 9.437L66.563 9.753L66.563 8.138Q67.038 8.138 67.941 8.107Q68.843 8.075 69.888 8.043Q70.933 8.012 71.804 7.964Q72.675 7.917 73.055 7.885L73.055 7.885L73.973 7.347Q74.575 7.347 75.414 7.394Q76.253 7.442 76.728 7.537L76.728 7.537Q77.140 7.632 77.140 8.012L77.140 8.012Q77.140 8.455 77.045 8.788Q76.950 9.120 76.823 9.247L76.823 9.247Q76.665 9.437 76.348 9.437M89.522 16.942L89.522 16.942L83.632 17.037L83.632 15.453L86.260 15.327L87.273 14.693Q88.002 14.662 88.841 14.709Q89.680 14.757 90.092 14.852L90.092 14.852Q90.598 14.978 90.630 15.453L90.630 15.453Q90.630 15.897 90.519 16.245Q90.408 16.593 90.250 16.720L90.250 16.720Q90.123 16.815 89.918 16.878Q89.712 16.942 89.522 16.942M83.283 32.553L81.763 32.553Q81.732 32.078 81.684 31.271Q81.637 30.463 81.589 29.545Q81.542 28.627 81.542 27.788Q81.542 26.948 81.542 26.410L81.542 26.410L81.542 4.813Q81.130 4.307 80.418 3.848Q79.705 3.388 78.850 3.103L78.850 3.103L79.135 2.248Q79.198 2.153 79.262 2.122Q79.325 2.090 79.547 2.090L79.547 2.090Q80.148 2.090 80.987 2.233Q81.827 2.375 82.618 2.565Q83.410 2.755 83.885 2.945L83.885 2.945Q84.297 3.103 84.297 3.642L84.297 3.642L84.202 5.383L84.202 25.523Q84.202 26.220 84.123 27.138Q84.043 28.057 83.948 29.038Q83.853 30.020 83.679 30.938Q83.505 31.857 83.283 32.553L83.283 32.553" fill="#0A0604"/><path d="M2.383 36.892L1.441 36.892L1.441 44.650L2.383 44.650L2.383 36.892M1.962 36.892L1.962 37.778L3.547 37.778Q4.300 37.778 4.771 38.139Q5.242 38.499 5.242 39.219L5.242 39.219Q5.242 39.928 4.771 40.294Q4.300 40.660 3.547 40.660L3.547 40.660L1.962 40.660L1.962 41.547L3.547 41.547Q4.300 41.547 4.893 41.264Q5.486 40.981 5.835 40.455Q6.184 39.928 6.184 39.219L6.184 39.219Q6.184 38.499 5.835 37.978Q5.486 37.457 4.893 37.174Q4.300 36.892 3.547 36.892L3.547 36.892L1.962 36.892" fill="#7A5A4A"/><path d="M7.650 36.892L6.708 36.892L6.708 42.101Q6.708 42.677 6.890 43.165Q7.073 43.652 7.422 44.007Q7.772 44.362 8.259 44.561Q8.747 44.761 9.345 44.761L9.345 44.761Q9.944 44.761 10.432 44.561Q10.919 44.362 11.268 44.007Q11.617 43.652 11.800 43.165Q11.983 42.677 11.983 42.101L11.983 42.101L11.983 36.892L11.041 36.892L11.041 42.101Q11.041 42.899 10.609 43.386Q10.177 43.874 9.345 43.874L9.345 43.874Q8.514 43.874 8.082 43.386Q7.650 42.899 7.650 42.101L7.650 42.101L7.650 36.892" fill="#7A5A4A"/><path d="M13.585 40.028L13.585 40.549L14.838 40.549Q15.536 40.549 16.051 40.350Q16.567 40.150 16.855 39.762Q17.143 39.374 17.143 38.831L17.143 38.831Q17.143 38.166 16.855 37.740Q16.567 37.313 16.051 37.102Q15.536 36.892 14.838 36.892L14.838 36.892L12.843 36.892L12.843 44.650L14.948 44.650Q15.702 44.650 16.295 44.401Q16.888 44.151 17.237 43.647Q17.586 43.143 17.586 42.378L17.586 42.378Q17.586 41.846 17.387 41.458Q17.187 41.070 16.827 40.821Q16.467 40.571 15.990 40.449Q15.514 40.328 14.948 40.328L14.948 40.328L13.585 40.328L13.585 40.848L14.948 40.848Q15.325 40.848 15.636 40.943Q15.946 41.037 16.173 41.225Q16.400 41.414 16.522 41.691Q16.644 41.968 16.644 42.322L16.644 42.322Q16.644 42.799 16.428 43.132Q16.212 43.464 15.829 43.641Q15.447 43.819 14.948 43.819L14.948 43.819L13.785 43.819L13.785 37.723L14.838 37.723Q15.425 37.723 15.813 38.028Q16.201 38.332 16.201 38.887L16.201 38.887Q16.201 39.252 16.023 39.507Q15.846 39.762 15.536 39.895Q15.225 40.028 14.838 40.028L14.838 40.028L13.585 40.028" fill="#7A5A4A"/><path d="M19.204 36.892L18.262 36.892L18.262 44.650L22.252 44.650L22.252 43.763L19.204 43.763L19.204 36.892" fill="#7A5A4A"/><path d="M23.574 36.892L22.632 36.892L22.632 44.650L23.574 44.650L23.574 36.892" fill="#7A5A4A"/><path d="M25.300 42.300L25.300 42.300L24.546 42.810Q24.801 43.320 25.205 43.769Q25.610 44.218 26.148 44.489Q26.685 44.761 27.317 44.761L27.317 44.761Q27.782 44.761 28.209 44.606Q28.636 44.450 28.974 44.162Q29.312 43.874 29.506 43.464Q29.700 43.054 29.700 42.544L29.700 42.544Q29.700 42.012 29.511 41.630Q29.323 41.247 29.029 40.976Q28.735 40.704 28.392 40.527Q28.048 40.350 27.738 40.239L27.738 40.239Q27.062 40.006 26.668 39.768Q26.275 39.529 26.109 39.258Q25.942 38.986 25.942 38.665L25.942 38.665Q25.942 38.288 26.231 37.983Q26.519 37.679 27.151 37.679L27.151 37.679Q27.605 37.679 27.921 37.856Q28.237 38.033 28.458 38.310Q28.680 38.587 28.824 38.876L28.824 38.876L29.633 38.410Q29.445 38.000 29.112 37.629Q28.780 37.257 28.309 37.019Q27.838 36.781 27.206 36.781L27.206 36.781Q26.552 36.781 26.042 37.041Q25.532 37.302 25.244 37.756Q24.956 38.211 24.956 38.787L24.956 38.787Q24.956 39.319 25.161 39.685Q25.366 40.050 25.688 40.300Q26.009 40.549 26.364 40.710Q26.718 40.871 27.006 40.970L27.006 40.970Q27.450 41.125 27.843 41.319Q28.237 41.513 28.481 41.824Q28.724 42.134 28.724 42.655L28.724 42.655Q28.724 43.187 28.348 43.531Q27.971 43.874 27.350 43.874L27.350 43.874Q26.885 43.874 26.519 43.675Q26.153 43.475 25.859 43.120Q25.566 42.766 25.300 42.300" fill="#7A5A4A"/><path d="M30.854 39.995L30.854 40.882L36.174 40.882L36.174 39.995L30.854 39.995M36.485 36.892L35.543 36.892L35.543 44.650L36.485 44.650L36.485 36.892M31.276 36.892L30.334 36.892L30.334 44.650L31.276 44.650L31.276 36.892" fill="#7A5A4A"/><path d="M38.220 36.892L37.278 36.892L37.278 44.650L38.220 44.650L38.220 36.892" fill="#7A5A4A"/><path d="M46.473 36.892L45.531 36.892L45.531 42.666L39.657 36.504L39.657 44.650L40.599 44.650L40.599 38.876L46.473 45.038L46.473 36.892" fill="#7A5A4A"/><path d="M50.786 40.715L50.786 41.602L53.368 41.602Q53.268 42.056 53.052 42.456Q52.836 42.855 52.504 43.165Q52.171 43.475 51.711 43.647Q51.251 43.819 50.675 43.819L50.675 43.819Q49.855 43.819 49.190 43.431Q48.525 43.043 48.131 42.356Q47.738 41.669 47.738 40.771L47.738 40.771Q47.738 39.862 48.131 39.180Q48.525 38.499 49.190 38.111Q49.855 37.723 50.675 37.723L50.675 37.723Q51.562 37.723 52.215 38.072Q52.869 38.421 53.235 39.042L53.235 39.042L53.900 38.432Q53.568 37.889 53.085 37.523Q52.603 37.158 51.999 36.969Q51.395 36.781 50.675 36.781L50.675 36.781Q49.833 36.781 49.112 37.075Q48.392 37.368 47.860 37.906Q47.328 38.443 47.034 39.175Q46.740 39.906 46.740 40.771L46.740 40.771Q46.740 41.635 47.034 42.367Q47.328 43.098 47.860 43.636Q48.392 44.173 49.112 44.467Q49.833 44.761 50.675 44.761L50.675 44.761Q51.562 44.761 52.254 44.434Q52.947 44.107 53.424 43.542Q53.900 42.976 54.144 42.250Q54.388 41.524 54.388 40.715L54.388 40.715L50.786 40.715" fill="#7A5A4A"/><path d="M58.145 39.995L58.145 40.882L63.465 40.882L63.465 39.995L58.145 39.995M63.775 36.892L62.833 36.892L62.833 44.650L63.775 44.650L63.775 36.892M58.566 36.892L57.624 36.892L57.624 44.650L58.566 44.650L58.566 36.892" fill="#7A5A4A"/><path d="M65.122 40.771L65.122 40.771Q65.122 39.895 65.504 39.208Q65.887 38.521 66.552 38.122Q67.217 37.723 68.059 37.723L68.059 37.723Q68.912 37.723 69.572 38.122Q70.231 38.521 70.614 39.208Q70.996 39.895 70.996 40.771L70.996 40.771Q70.996 41.646 70.614 42.334Q70.231 43.021 69.572 43.420Q68.912 43.819 68.059 43.819L68.059 43.819Q67.217 43.819 66.552 43.420Q65.887 43.021 65.504 42.334Q65.122 41.646 65.122 40.771M64.124 40.771L64.124 40.771Q64.124 41.613 64.418 42.345Q64.712 43.076 65.244 43.614Q65.776 44.151 66.496 44.456Q67.217 44.761 68.059 44.761L68.059 44.761Q68.912 44.761 69.627 44.456Q70.342 44.151 70.874 43.614Q71.406 43.076 71.700 42.345Q71.994 41.613 71.994 40.771L71.994 40.771Q71.994 39.917 71.700 39.191Q71.406 38.465 70.874 37.928Q70.342 37.390 69.627 37.086Q68.912 36.781 68.059 36.781L68.059 36.781Q67.217 36.781 66.496 37.086Q65.776 37.390 65.244 37.928Q64.712 38.465 64.418 39.191Q64.124 39.917 64.124 40.771" fill="#7A5A4A"/><path d="M73.127 36.892L72.185 36.892L72.185 42.101Q72.185 42.677 72.368 43.165Q72.550 43.652 72.900 44.007Q73.249 44.362 73.736 44.561Q74.224 44.761 74.823 44.761L74.823 44.761Q75.421 44.761 75.909 44.561Q76.396 44.362 76.746 44.007Q77.095 43.652 77.278 43.165Q77.460 42.677 77.460 42.101L77.460 42.101L77.460 36.892L76.518 36.892L76.518 42.101Q76.518 42.899 76.086 43.386Q75.654 43.874 74.823 43.874L74.823 43.874Q73.991 43.874 73.559 43.386Q73.127 42.899 73.127 42.101L73.127 42.101L73.127 36.892" fill="#7A5A4A"/><path d="M78.608 42.300L78.608 42.300L77.854 42.810Q78.109 43.320 78.514 43.769Q78.918 44.218 79.456 44.489Q79.993 44.761 80.625 44.761L80.625 44.761Q81.091 44.761 81.517 44.606Q81.944 44.450 82.282 44.162Q82.620 43.874 82.814 43.464Q83.008 43.054 83.008 42.544L83.008 42.544Q83.008 42.012 82.820 41.630Q82.631 41.247 82.337 40.976Q82.044 40.704 81.700 40.527Q81.357 40.350 81.046 40.239L81.046 40.239Q80.370 40.006 79.977 39.768Q79.583 39.529 79.417 39.258Q79.251 38.986 79.251 38.665L79.251 38.665Q79.251 38.288 79.539 37.983Q79.827 37.679 80.459 37.679L80.459 37.679Q80.913 37.679 81.229 37.856Q81.545 38.033 81.767 38.310Q81.988 38.587 82.132 38.876L82.132 38.876L82.941 38.410Q82.753 38.000 82.421 37.629Q82.088 37.257 81.617 37.019Q81.146 36.781 80.514 36.781L80.514 36.781Q79.860 36.781 79.350 37.041Q78.841 37.302 78.552 37.756Q78.264 38.211 78.264 38.787L78.264 38.787Q78.264 39.319 78.469 39.685Q78.674 40.050 78.996 40.300Q79.317 40.549 79.672 40.710Q80.027 40.871 80.315 40.970L80.315 40.970Q80.758 41.125 81.152 41.319Q81.545 41.513 81.789 41.824Q82.033 42.134 82.033 42.655L82.033 42.655Q82.033 43.187 81.656 43.531Q81.279 43.874 80.658 43.874L80.658 43.874Q80.193 43.874 79.827 43.675Q79.461 43.475 79.168 43.120Q78.874 42.766 78.608 42.300" fill="#7A5A4A"/><path d="M84.163 43.763L84.163 44.650L88.075 44.650L88.075 43.763L84.163 43.763M84.163 36.892L84.163 37.778L88.075 37.778L88.075 36.892L84.163 36.892M84.163 39.995L84.163 40.882L87.853 40.882L87.853 39.995L84.163 39.995M84.584 36.892L83.642 36.892L83.642 44.650L84.584 44.650L84.584 36.892" fill="#7A5A4A"/></g></g></svg>
